<svg width="23" height="22" viewBox="0 0 23 22" fill="none" xmlns="http://www.w3.org/2000/svg">
<path d="M11.5007 5.0808C13.0869 5.0808 14.3734 3.94341 14.3734 2.54057C14.3734 1.13773 13.087 0 11.5007 0C9.91443 0 8.62842 1.13768 8.62842 2.54057C8.62842 3.94346 9.91448 5.0808 11.5007 5.0808Z" fill="#F56B3F"/>
<path d="M11.4996 9.80557C13.4728 9.80557 15.4936 9.2013 15.1783 7.52831C15.0499 6.84889 14.4146 5.89649 13.9321 5.47006C13.8696 5.41515 13.5867 5.4008 13.5099 5.44291C12.9243 5.76234 12.2368 5.94856 11.4996 5.94856C10.7627 5.94856 10.0752 5.76234 9.48974 5.44291C9.41283 5.4008 9.12991 5.41515 9.06748 5.47006C8.58532 5.89649 7.94933 6.84889 7.82126 7.52831C7.50599 9.20134 9.52681 9.80557 11.4996 9.80557Z" fill="#F56B3F"/>
<path d="M3.71023 17.2754C5.29646 17.2754 6.58291 16.138 6.58291 14.7352C6.58291 13.332 5.29651 12.1946 3.71023 12.1946C2.12395 12.1946 0.837891 13.332 0.837891 14.7352C0.837939 16.138 2.124 17.2754 3.71023 17.2754Z" fill="#F56B3F"/>
<path d="M6.14343 17.665C6.081 17.6095 5.79813 17.5958 5.72122 17.6376C5.13532 17.957 4.44822 18.143 3.71098 18.143C2.97379 18.143 2.28664 17.957 1.70109 17.6376C1.62418 17.5958 1.34092 17.6095 1.27854 17.665C0.796325 18.0911 0.160727 19.0435 0.0327034 19.723C-0.282667 21.396 1.73816 22 3.71098 22C5.6842 22 7.70502 21.396 7.3896 19.723C7.26129 19.0435 6.62564 18.0911 6.14343 17.665Z" fill="#F56B3F"/>
<path d="M19.2882 17.2754C20.8744 17.2754 22.1605 16.138 22.1605 14.7352C22.1605 13.332 20.8744 12.1946 19.2882 12.1946C17.702 12.1946 16.4155 13.332 16.4155 14.7352C16.4156 16.138 17.702 17.2754 19.2882 17.2754Z" fill="#F56B3F"/>
<path d="M22.9671 19.723C22.8391 19.0435 22.2035 18.0911 21.7213 17.665C21.6588 17.6095 21.3756 17.5958 21.2987 17.6376C20.7131 17.957 20.026 18.143 19.2888 18.143C18.5516 18.143 17.8645 17.957 17.2786 17.6376C17.2017 17.5958 16.9188 17.6095 16.8564 17.665C16.3742 18.0911 15.7387 19.0435 15.6103 19.723C15.295 21.396 17.3156 22 19.2888 22C21.2617 22 23.2825 21.396 22.9671 19.723Z" fill="#F56B3F"/>
<path d="M15.3988 15.9402L11.9741 14.1917V10.6947C11.9741 10.4632 11.7621 10.2758 11.5003 10.2758C11.239 10.2758 11.027 10.4632 11.027 10.6947V14.1917L7.60226 15.9402C7.37585 16.0559 7.29788 16.3124 7.42872 16.5126C7.55961 16.7129 7.84952 16.7815 8.07598 16.6661L11.5003 14.9173L14.925 16.6658C15.1515 16.7815 15.4411 16.7129 15.5719 16.5126C15.7028 16.3124 15.6252 16.0559 15.3988 15.9402Z" fill="#F56B3F"/>
</svg>
