<svg width="24" height="24" viewBox="0 0 24 24" fill="none" xmlns="http://www.w3.org/2000/svg">
<g clip-path="url(#clip0_120_4816)">
<path d="M15.1332 9.30677C15.8298 9.30677 16.3944 8.74212 16.3944 8.0456C16.3944 7.34907 15.8298 6.78442 15.1332 6.78442C14.4367 6.78442 13.8721 7.34907 13.8721 8.0456C13.8721 8.74212 14.4367 9.30677 15.1332 9.30677Z" fill="#0A0A1F"/>
<path d="M23.4265 6.79254H21.9887C21.8729 6.43675 21.729 6.09008 21.5585 5.7557L22.5757 4.73856C22.7996 4.51456 22.7996 4.15157 22.5757 3.92757L20.2299 1.5818C20.0059 1.35796 19.6429 1.35796 19.4189 1.5818L18.4017 2.59901C18.0672 2.4285 17.7207 2.28466 17.3649 2.16879V0.731129C17.3649 0.414442 17.1082 0.157715 16.7915 0.157715H13.4741C13.1574 0.157715 12.9007 0.414442 12.9007 0.731129V2.16895C12.5449 2.28483 12.1983 2.42866 11.8639 2.59925L10.8468 1.58204C10.7392 1.47448 10.5934 1.41404 10.4413 1.41404C10.2892 1.41404 10.1434 1.4744 10.0358 1.58196L7.69027 3.92757C7.46636 4.15157 7.46636 4.51456 7.69027 4.73848L8.70741 5.7557C8.53698 6.09008 8.39314 6.43667 8.27718 6.79254H6.83953C6.52284 6.79254 6.26611 7.04927 6.26611 7.36596V10.6834C6.26611 11.0001 6.52284 11.2568 6.83953 11.2568H8.27726C8.39314 11.6126 8.53698 11.9591 8.70749 12.2935L7.69036 13.3107C7.5828 13.4182 7.52236 13.5641 7.52236 13.7162C7.52236 13.8683 7.58272 14.014 7.69036 14.1217L10.0362 16.4675C10.2601 16.6913 10.6231 16.6913 10.8471 16.4675L11.8643 15.4503C12.1987 15.6208 12.5453 15.7647 12.9011 15.8805V17.3184C12.9011 17.635 13.1578 17.8918 13.4745 17.8918H16.7919C17.1086 17.8918 17.3653 17.635 17.3653 17.3184V15.8805C17.7211 15.7647 18.0676 15.6209 18.4021 15.4503L19.4193 16.4675C19.6433 16.6914 20.0063 16.6914 20.2303 16.4675L22.5761 14.1218C22.8 13.8978 22.8 13.5348 22.5761 13.3108L21.5589 12.2936C21.7294 11.9592 21.8732 11.6127 21.9891 11.2569H23.4269C23.7436 11.2569 24.0003 11.0001 24.0003 10.6835V7.36596C23.9999 7.04927 23.7432 6.79254 23.4265 6.79254ZM15.133 12.9578C12.9643 12.9578 11.1999 11.1934 11.1999 9.02471C11.1999 6.85598 12.9643 5.09153 15.133 5.09153C17.3018 5.09153 19.0661 6.85598 19.0661 9.02471C19.0661 11.1934 17.3018 12.9578 15.133 12.9578Z" fill="#0A0A1F"/>
<path d="M9.05123 17.6089H8.51426C8.48945 17.5444 8.46295 17.4805 8.43483 17.4174L8.81463 17.0375C9.03855 16.8136 9.03855 16.4506 8.81463 16.2266L7.61568 15.0277C7.39184 14.804 7.02877 14.8038 6.80477 15.0277L6.42489 15.4075C6.36178 15.3793 6.29786 15.3528 6.23337 15.328V14.7911C6.23337 14.4744 5.97665 14.2177 5.65996 14.2177H3.96453C3.64784 14.2177 3.39111 14.4744 3.39111 14.7911V15.328C3.32663 15.3528 3.26271 15.3793 3.1996 15.4075L2.81972 15.0277C2.59588 14.8038 2.23281 14.8038 2.00881 15.0277L0.809859 16.2266C0.585939 16.4506 0.585939 16.8136 0.809859 17.0375L1.18966 17.4174C1.16154 17.4805 1.13503 17.5444 1.11022 17.6089H0.573414C0.256727 17.6089 0 17.8657 0 18.1823V19.8779C0 20.1946 0.256727 20.4513 0.573414 20.4513H1.11038C1.13519 20.5158 1.1617 20.5797 1.18982 20.6428L0.81002 21.0227C0.586101 21.2466 0.586101 21.6096 0.81002 21.8336L2.00897 23.0325C2.23297 23.2564 2.59596 23.2564 2.81996 23.0325L3.19976 22.6526C3.26287 22.6808 3.32679 22.7073 3.39127 22.7322V23.2691C3.39127 23.5858 3.648 23.8425 3.96469 23.8425H5.6602C5.97689 23.8425 6.23362 23.5858 6.23362 23.2691V22.7322C6.2981 22.7073 6.36202 22.6808 6.42513 22.6527L6.80501 23.0325C7.02885 23.2564 7.39192 23.2564 7.61592 23.0325L8.81487 21.8336C9.03879 21.6096 9.03879 21.2466 8.81487 21.0227L8.43507 20.6428C8.46319 20.5797 8.4897 20.5158 8.5145 20.4513H9.05147C9.36816 20.4513 9.62489 20.1946 9.62489 19.8779V18.1823C9.62457 17.8656 9.36792 17.6089 9.05123 17.6089ZM4.81228 20.9959C3.72832 20.9959 2.84638 20.114 2.84638 19.03C2.84638 17.9461 3.72832 17.0641 4.81228 17.0641C5.89624 17.0641 6.77818 17.9461 6.77818 19.03C6.77818 20.114 5.89624 20.9959 4.81228 20.9959Z" fill="#0A0A1F"/>
<path d="M16.5469 10.0065L16.1703 9.89099L15.1331 10.3842L14.0959 9.89099L13.7194 10.0065C13.3194 10.1398 13.0408 10.4972 13.0034 10.9112C13.5288 11.4935 14.2888 11.8603 15.1331 11.8603C15.9773 11.8603 16.7374 11.4935 17.2628 10.9111C17.2254 10.4971 16.9469 10.1398 16.5469 10.0065Z" fill="#0A0A1F"/>
</g>
<defs>
<clipPath id="clip0_120_4816">
<rect width="24" height="24" fill="white"/>
</clipPath>
</defs>
</svg>
