<svg width="14" height="14" viewBox="0 0 14 14" fill="none" xmlns="http://www.w3.org/2000/svg">
<path d="M0.387412 0.387402C-0.129137 0.903951 -0.129137 1.74142 0.387412 2.25797L5.12943 6.99997L0.387412 11.7421C-0.129137 12.2586 -0.129137 13.0961 0.387412 13.6126C0.903948 14.1291 1.74143 14.1291 2.25797 13.6126L6.99997 8.87051L11.7421 13.6126C12.2586 14.1291 13.0961 14.1291 13.6126 13.6126C14.1291 13.0961 14.1291 12.2586 13.6126 11.7421L8.87052 6.99997L13.6126 2.25799C14.1291 1.74145 14.1291 0.903964 13.6126 0.387428C13.096 -0.129121 12.2586 -0.129121 11.7421 0.387428L6.99997 5.12942L2.25797 0.387402C1.74143 -0.129134 0.903948 -0.129134 0.387412 0.387402Z" fill="#0F0F0F"/>
</svg>
