<svg width="24" height="24" viewBox="0 0 24 24" fill="none" xmlns="http://www.w3.org/2000/svg">
<path d="M19.875 9.75C17.625 9.75 15.75 7.875 15.75 5.625C15.75 3.375 17.625 1.5 19.875 1.5C22.125 1.5 24 3.375 24 5.625C24 7.875 22.125 9.75 19.875 9.75Z" fill="#F56B3F"/>
<path d="M14.2499 5.625C14.2499 4.65 14.4749 3.75 14.9249 3H5.2499C3.5249 3 2.0999 4.125 1.6499 5.7L11.9999 12.6L16.1249 9.825C14.9999 8.775 14.2499 7.275 14.2499 5.625Z" fill="#F56B3F"/>
<path d="M19.875 11.25C19.05 11.25 18.225 11.025 17.55 10.725L12.45 14.1C12.3 14.175 12.15 14.25 12 14.25C11.85 14.25 11.7 14.175 11.55 14.1L1.5 7.42505V17.25C1.5 19.35 3.15 21 5.25 21H18.75C20.85 21 22.5 19.35 22.5 17.25V10.575C21.75 11.025 20.85 11.25 19.875 11.25Z" fill="#F56B3F"/>
</svg>
