<svg width="20" height="20" viewBox="0 0 20 20" fill="none" xmlns="http://www.w3.org/2000/svg">
<path d="M10 0C8.02222 0 6.08879 0.586489 4.4443 1.6853C2.79981 2.78412 1.51809 4.3459 0.76121 6.17317C0.0043318 8.00045 -0.193702 10.0111 0.192154 11.9509C0.577999 13.8907 1.53041 15.6726 2.92893 17.0711C4.32747 18.4696 6.10929 19.422 8.04911 19.8079C9.98889 20.1937 11.9996 19.9957 13.8269 19.2388C15.6541 18.4819 17.2159 17.2002 18.3147 15.5557C19.4136 13.9112 20 11.9778 20 10C20 7.34783 18.9464 4.8043 17.0711 2.92893C15.1957 1.05357 12.6522 0 10 0ZM1.66667 10C1.66499 8.07822 2.3329 6.21597 3.55555 4.73333L15.2667 16.4444C14.0473 17.4446 12.5688 18.0777 11.0034 18.27C9.43811 18.4622 7.85044 18.2058 6.4252 17.5304C5.00001 16.8551 3.79605 15.7887 2.95359 14.4554C2.11111 13.1222 1.66481 11.5771 1.66667 10ZM16.4444 15.2667L4.73333 3.55556C6.33063 2.2484 8.35667 1.58143 10.4181 1.68414C12.4794 1.78686 14.4292 2.65191 15.8887 4.11136C17.3481 5.5708 18.2131 7.52051 18.3159 9.58189C18.4186 11.6433 17.7516 13.6693 16.4444 15.2667Z" fill="#FF3333"/>
</svg>
