<svg width="21" height="20" viewBox="0 0 21 20" fill="none" xmlns="http://www.w3.org/2000/svg">
<g clip-path="url(#clip0_460_20067)">
<path d="M15.9727 10.8333V15.8333C15.9727 16.2754 15.7971 16.6993 15.4845 17.0118C15.1719 17.3244 14.748 17.5 14.306 17.5H5.13932C4.6973 17.5 4.27337 17.3244 3.96081 17.0118C3.64825 16.6993 3.47266 16.2754 3.47266 15.8333V6.66667C3.47266 6.22464 3.64825 5.80072 3.96081 5.48816C4.27337 5.17559 4.6973 5 5.13932 5H10.1393" stroke="#F56B3F" stroke-width="2" stroke-linecap="round" stroke-linejoin="round"/>
<path d="M13.4727 2.5H18.4727V7.5" stroke="#F56B3F" stroke-width="2" stroke-linecap="round" stroke-linejoin="round"/>
<path d="M9.30615 11.6667L18.4728 2.5" stroke="#F56B3F" stroke-width="2" stroke-linecap="round" stroke-linejoin="round"/>
<path d="M15.9727 10.8333V15.8333C15.9727 16.2754 15.7971 16.6993 15.4845 17.0118C15.1719 17.3244 14.748 17.5 14.306 17.5H5.13932C4.6973 17.5 4.27337 17.3244 3.96081 17.0118C3.64825 16.6993 3.47266 16.2754 3.47266 15.8333V6.66667C3.47266 6.22464 3.64825 5.80072 3.96081 5.48816C4.27337 5.17559 4.6973 5 5.13932 5H10.1393" stroke="#F56B3F" stroke-width="2" stroke-linecap="round" stroke-linejoin="round"/>
<path d="M13.4727 2.5H18.4727V7.5" stroke="#F56B3F" stroke-width="2" stroke-linecap="round" stroke-linejoin="round"/>
<path d="M9.30615 11.6667L18.4728 2.5" stroke="#F56B3F" stroke-width="2" stroke-linecap="round" stroke-linejoin="round"/>
</g>
<defs>
<clipPath id="clip0_460_20067">
<rect width="20" height="20" fill="white" transform="translate(0.972656)"/>
</clipPath>
</defs>
</svg>
