<svg width="25" height="26" viewBox="0 0 25 26" fill="none" xmlns="http://www.w3.org/2000/svg">
<path d="M12.4987 14.0417C13.074 14.0417 13.5404 13.5753 13.5404 13C13.5404 12.4247 13.074 11.9584 12.4987 11.9584C11.9234 11.9584 11.457 12.4247 11.457 13C11.457 13.5753 11.9234 14.0417 12.4987 14.0417Z" stroke="white" stroke-width="1.5"/>
<path d="M18.9854 12.3547C19.1195 12.6187 19.1865 12.7507 19.1865 13C19.1865 13.2493 19.1195 13.3812 18.9854 13.6453C18.3329 14.9305 16.4703 17.6875 12.4995 17.6875C8.52866 17.6875 6.66608 14.9305 6.01354 13.6453C5.87951 13.3812 5.8125 13.2493 5.8125 13C5.8125 12.7507 5.87951 12.6187 6.01354 12.3547C6.66608 11.0695 8.52866 8.3125 12.4995 8.3125C16.4703 8.3125 18.3329 11.0695 18.9854 12.3547Z" stroke="white" stroke-width="1.5"/>
<path d="M17.7083 4.66663H17.9167C19.7826 4.66663 20.7156 4.66663 21.2953 5.24631C21.875 5.82599 21.875 6.75898 21.875 8.62496V8.83329M17.7083 21.3333H17.9167C19.7826 21.3333 20.7156 21.3333 21.2953 20.7536C21.875 20.1739 21.875 19.2409 21.875 17.375V17.1666M7.29167 4.66663H7.08333C5.21735 4.66663 4.28436 4.66663 3.70469 5.24631C3.125 5.82599 3.125 6.75898 3.125 8.62496V8.83329M7.29167 21.3333H7.08333C5.21735 21.3333 4.28436 21.3333 3.70469 20.7536C3.125 20.1739 3.125 19.2409 3.125 17.375V17.1666" stroke="white" stroke-width="1.5" stroke-linecap="round"/>
</svg>
