<svg width="24" height="24" viewBox="0 0 24 24" fill="none" xmlns="http://www.w3.org/2000/svg">
<g clip-path="url(#clip0_187_4455)">
<path d="M18.3069 11.4866C17.4538 11.4799 16.6184 11.7306 15.9101 12.2061C15.2017 12.6816 14.6533 13.3597 14.3365 14.1518C14.0196 14.9439 13.9491 15.8132 14.1341 16.646C14.3191 17.4789 14.7511 18.2365 15.3735 18.82L14.0802 20.4L14.6802 22.8066L17.1202 19.8333C17.8926 20.0617 18.7145 20.0617 19.4869 19.8333L21.9269 22.8066L22.5269 20.4L21.2335 18.82C21.856 18.2365 22.2879 17.4789 22.473 16.646C22.658 15.8132 22.5875 14.9439 22.2706 14.1518C21.9538 13.3597 21.4053 12.6816 20.697 12.2061C19.9886 11.7306 19.1533 11.4799 18.3002 11.4866H18.3069ZM18.3069 18.6066C17.7403 18.5988 17.1888 18.4236 16.7216 18.1031C16.2544 17.7826 15.8923 17.3311 15.6809 16.8055C15.4696 16.2798 15.4184 15.7033 15.5337 15.1486C15.6491 14.5939 15.9258 14.0857 16.3292 13.6878C16.7326 13.29 17.2446 13.0203 17.8009 12.9126C18.3571 12.8049 18.9328 12.8641 19.4555 13.0827C19.9782 13.3013 20.4246 13.6696 20.7386 14.1412C21.0526 14.6128 21.2201 15.1667 21.2202 15.7333C21.2132 16.5001 20.9027 17.2329 20.3567 17.7714C19.8107 18.3099 19.0737 18.6102 18.3069 18.6066Z" fill="#F56B3F"/>
<path d="M20.0002 9C18.6741 9 17.4023 8.47322 16.4646 7.53553C15.5269 6.59785 15.0002 5.32608 15.0002 4H2.66683C2.31321 4 1.97407 4.14048 1.72402 4.39052C1.47397 4.64057 1.3335 4.97971 1.3335 5.33333V18.6667C1.3335 19.0203 1.47397 19.3594 1.72402 19.6095C1.97407 19.8595 2.31321 20 2.66683 20H12.6668L13.0468 19.5333L13.6668 18.7733C12.8388 17.5783 12.5117 16.1064 12.7559 14.6731C13 13.2398 13.7958 11.9592 14.9728 11.1056C16.1498 10.2521 17.6144 9.89352 19.0526 10.1068C20.4908 10.3201 21.7882 11.0883 22.6668 12.2467V8.24667C21.8673 8.74534 20.9425 9.0066 20.0002 9ZM11.3335 16.4H4.66683V15.3333H11.3335V16.4ZM12.0002 11.7333H4.66683V10.6667H12.0002V11.7333ZM16.0002 9.06667H4.66683V8H16.0002V9.06667Z" fill="#F56B3F"/>
<path d="M19.9998 7.33335C21.8408 7.33335 23.3332 5.84097 23.3332 4.00002C23.3332 2.15907 21.8408 0.666687 19.9998 0.666687C18.1589 0.666687 16.6665 2.15907 16.6665 4.00002C16.6665 5.84097 18.1589 7.33335 19.9998 7.33335Z" fill="#F56B3F"/>
</g>
<defs>
<clipPath id="clip0_187_4455">
<rect width="24" height="24" fill="white"/>
</clipPath>
</defs>
</svg>
