<svg width="20" height="22" viewBox="0 0 20 22" fill="none" xmlns="http://www.w3.org/2000/svg">
<path d="M7.5 19.8H12.5C12.5 20.3835 12.2366 20.9431 11.7678 21.3556C11.2989 21.7682 10.663 22 10 22C9.33696 22 8.70107 21.7682 8.23223 21.3556C7.76339 20.9431 7.5 20.3835 7.5 19.8ZM17.5 15.4V8.8C17.4982 7.24144 16.8697 5.73372 15.7258 4.54385C14.5818 3.35399 12.9963 2.55876 11.25 2.299V1.1C11.25 0.808262 11.1183 0.528472 10.8839 0.322183C10.6495 0.115892 10.3315 0 10 0C9.66848 0 9.35054 0.115892 9.11612 0.322183C8.8817 0.528472 8.75 0.808262 8.75 1.1V2.299C7.00367 2.55876 5.41816 3.35399 4.27423 4.54385C3.13031 5.73372 2.50179 7.24144 2.5 8.8V15.4L0 17.6H20L17.5 15.4Z" fill="#F56B3F"/>
</svg>
