<svg width="24" height="18" viewBox="0 0 24 18" fill="none" xmlns="http://www.w3.org/2000/svg">
<path d="M19.6273 13.7009C20.8585 14.4125 21.5618 15.6802 21.4736 16.948C21.4146 17.7209 21.3855 17.7526 20.4478 17.8763C19.8617 17.9693 16.169 18 12.3601 18C8.05224 18 3.53999 17.907 3.21742 17.8139C1.92808 17.4735 2.63136 14.9993 4.33142 13.8246C5.64983 12.928 8.34574 11.5672 9.07903 11.4118C10.0758 11.1951 10.193 10.5459 9.07903 8.44282C8.81553 7.97867 8.52203 6.55652 8.49296 5.07203C8.46389 2.65923 8.90368 1.02034 10.8963 0.216736C11.307 0.0623487 11.7168 0 12.0975 0C13.4159 0 14.6471 0.772927 15.1451 1.91797C15.8774 3.43314 15.5848 7.48483 14.8225 8.93864C13.9429 10.5775 14.0311 11.104 14.9988 11.3821C15.6439 11.5682 17.6365 12.5578 19.6292 13.7019L19.6273 13.7009ZM3.68628 12.7736C3.21742 13.114 2.77764 13.5465 2.426 13.98C1.312 13.98 0.462442 13.9493 0.374298 13.9176C-0.358051 13.7316 0.0517266 12.3094 1.01944 11.6909C1.75179 11.1961 3.24649 10.4231 3.65721 10.3301C4.18514 10.2064 4.30235 9.86596 3.65721 8.69123C3.51093 8.44381 3.33464 7.63921 3.33464 6.80493C3.30557 5.44414 3.56906 4.51583 4.68306 4.11403C5.62077 3.74291 6.67569 4.20706 7.05639 5.04234C7.4371 5.90829 7.23268 8.13503 6.82197 8.93963C6.35312 9.89861 6.44126 10.146 6.96825 10.3004C7.08546 10.3311 7.31989 10.4548 7.64246 10.6102C6.35311 11.1674 4.59491 12.1877 3.68628 12.7756V12.7736ZM22.9683 11.5979C23.6716 11.9997 24.0523 12.6806 23.9942 13.3921C23.9651 13.8256 23.9651 13.8563 23.4372 13.9176C23.2909 13.9483 22.6167 13.98 21.7371 13.98C21.3564 13.4545 20.8285 12.9596 20.1843 12.6192C18.9831 11.877 17.5175 11.0724 16.4335 10.5775C16.727 10.4538 16.9905 10.3608 17.1077 10.3301C17.6647 10.2064 17.7528 9.86596 17.1077 8.69123C16.9905 8.44381 16.7851 7.63921 16.7851 6.80493C16.756 5.44414 16.9905 4.51583 18.1035 4.11403C19.0703 3.74291 20.1252 4.20706 20.4769 5.04234C20.8576 5.90829 20.7113 8.13503 20.3006 8.93963C19.8317 9.89861 19.8898 10.146 20.3887 10.3004C20.7403 10.4241 21.8543 10.9813 22.9674 11.5998L22.9683 11.5979Z" fill="#F56B3F"/>
</svg>
