<svg width="22" height="22" viewBox="0 0 22 22" fill="none" xmlns="http://www.w3.org/2000/svg">
<path d="M15.125 0.805786V5.50004H19.8192L15.125 0.805786Z" fill="#F56B3F"/>
<path d="M13.75 8.25C12.99 8.25 12.375 7.63503 12.375 6.875V0H2.75C1.98997 0 1.375 0.614969 1.375 1.375V20.625C1.375 21.385 1.98997 22 2.75 22H19.25C20.01 22 20.625 21.385 20.625 20.625V8.25H13.75ZM8.25 8.25H9.625C10.385 8.25 11 8.86497 11 9.625C11 10.385 10.385 11 9.625 11H8.25C7.48997 11 6.875 10.385 6.875 9.625C6.875 8.86497 7.48997 8.25 8.25 8.25ZM13.75 16.5H8.25C7.48997 16.5 6.875 15.885 6.875 15.125C6.875 14.365 7.48997 13.75 8.25 13.75H13.75C14.51 13.75 15.125 14.365 15.125 15.125C15.125 15.885 14.51 16.5 13.75 16.5Z" fill="#F56B3F"/>
</svg>
