<svg width="224" height="34" viewBox="0 0 224 34" fill="none" xmlns="http://www.w3.org/2000/svg">
<path d="M17 12.75C14.6528 12.75 12.75 14.6528 12.75 17V29.75C12.75 32.0972 14.6528 34 17 34C19.3472 34 21.25 32.0972 21.25 29.75V21.25H29.75C32.0972 21.25 34 19.3472 34 17C34 14.6528 32.0972 12.75 29.75 12.75H17Z" fill="#F56B3F" fill-opacity="0.88"/>
<path d="M17 0C14.6528 0 12.75 1.90279 12.75 4.25V12.75H4.25C1.90279 12.75 0 14.6528 0 17C0 19.3472 1.90279 21.25 4.25 21.25H17C19.3472 21.25 21.25 19.3472 21.25 17V4.25C21.25 1.90279 19.3472 0 17 0Z" fill="#F56B3F" fill-opacity="0.88"/>
<path d="M21.25 12.75H17C14.6528 12.75 12.75 14.6528 12.75 17V21.25H17C19.3472 21.25 21.25 19.3472 21.25 17V12.75Z" fill="#F56B3F" fill-opacity="0.91"/>
<path d="M53.6364 26H47.7216V8.54545H53.7557C55.4886 8.54545 56.9773 8.89489 58.2216 9.59375C59.4716 10.2869 60.4318 11.2841 61.1023 12.5852C61.7727 13.8864 62.108 15.4432 62.108 17.2557C62.108 19.0739 61.7699 20.6364 61.0938 21.9432C60.4233 23.25 59.4545 24.2528 58.1875 24.9517C56.9261 25.6506 55.4091 26 53.6364 26ZM50.8835 23.2642H53.483C54.6989 23.2642 55.7131 23.0426 56.5256 22.5994C57.3381 22.1506 57.9489 21.483 58.358 20.5966C58.767 19.7045 58.9716 18.5909 58.9716 17.2557C58.9716 15.9205 58.767 14.8125 58.358 13.9318C57.9489 13.0455 57.3438 12.3835 56.5426 11.946C55.7472 11.5028 54.7585 11.2812 53.5767 11.2812H50.8835V23.2642ZM68.8629 26.2642C68.0334 26.2642 67.2862 26.1165 66.6214 25.821C65.9623 25.5199 65.4396 25.0767 65.0532 24.4915C64.6726 23.9062 64.4822 23.1847 64.4822 22.3267C64.4822 21.5881 64.6186 20.9773 64.8913 20.4943C65.164 20.0114 65.5362 19.625 66.0078 19.3352C66.4794 19.0455 67.0106 18.8267 67.6015 18.679C68.1981 18.5256 68.8146 18.4148 69.451 18.3466C70.218 18.267 70.8402 18.196 71.3174 18.1335C71.7947 18.0653 72.1413 17.9631 72.3572 17.8267C72.5788 17.6847 72.6896 17.4659 72.6896 17.1705V17.1193C72.6896 16.4773 72.4993 15.9801 72.1186 15.6278C71.7379 15.2756 71.1896 15.0994 70.4737 15.0994C69.718 15.0994 69.1186 15.2642 68.6754 15.5938C68.2379 15.9233 67.9424 16.3125 67.789 16.7614L64.9084 16.3523C65.1356 15.5568 65.5106 14.892 66.0334 14.358C66.5561 13.8182 67.1953 13.4148 67.951 13.1477C68.7066 12.875 69.5419 12.7386 70.4566 12.7386C71.0873 12.7386 71.7152 12.8125 72.3402 12.9602C72.9652 13.108 73.5362 13.3523 74.0532 13.6932C74.5703 14.0284 74.9851 14.4858 75.2976 15.0653C75.6157 15.6449 75.7748 16.3693 75.7748 17.2386V26H72.8089V24.2017H72.7066C72.5191 24.5653 72.2549 24.9062 71.914 25.2244C71.5788 25.5369 71.1555 25.7898 70.6441 25.983C70.1385 26.1705 69.5447 26.2642 68.8629 26.2642ZM69.664 23.9972C70.2834 23.9972 70.8203 23.875 71.2748 23.6307C71.7294 23.3807 72.0788 23.0511 72.3231 22.642C72.5731 22.233 72.6981 21.7869 72.6981 21.304V19.7614C72.6015 19.8409 72.4368 19.9148 72.2038 19.983C71.9765 20.0511 71.7209 20.1108 71.4368 20.1619C71.1527 20.2131 70.8714 20.2585 70.593 20.2983C70.3146 20.3381 70.0731 20.3722 69.8686 20.4006C69.4084 20.4631 68.9964 20.5653 68.6328 20.7074C68.2691 20.8494 67.9822 21.0483 67.772 21.304C67.5618 21.554 67.4566 21.8778 67.4566 22.2756C67.4566 22.8438 67.664 23.2727 68.0788 23.5625C68.4936 23.8523 69.022 23.9972 69.664 23.9972ZM89.3437 16.3693L86.5312 16.6761C86.4516 16.392 86.3124 16.125 86.1136 15.875C85.9204 15.625 85.659 15.4233 85.3295 15.2699C84.9999 15.1165 84.5965 15.0398 84.1193 15.0398C83.4772 15.0398 82.9374 15.179 82.4999 15.4574C82.0681 15.7358 81.8551 16.0966 81.8607 16.5398C81.8551 16.9205 81.9943 17.2301 82.2784 17.4688C82.5681 17.7074 83.0454 17.9034 83.7102 18.0568L85.9431 18.5341C87.1818 18.8011 88.1022 19.2244 88.7045 19.804C89.3124 20.3835 89.6193 21.142 89.6249 22.0795C89.6193 22.9034 89.3778 23.6307 88.9005 24.2614C88.4289 24.8864 87.7727 25.375 86.9318 25.7273C86.0909 26.0795 85.1249 26.2557 84.034 26.2557C82.4318 26.2557 81.142 25.9205 80.1647 25.25C79.1874 24.5739 78.6051 23.6335 78.4176 22.429L81.4261 22.1392C81.5624 22.7301 81.8522 23.1761 82.2954 23.4773C82.7386 23.7784 83.3153 23.929 84.0255 23.929C84.7585 23.929 85.3465 23.7784 85.7897 23.4773C86.2386 23.1761 86.463 22.804 86.463 22.3608C86.463 21.9858 86.3181 21.6761 86.0284 21.4318C85.7443 21.1875 85.3011 21 84.6988 20.8693L82.4659 20.4006C81.2102 20.1392 80.2812 19.6989 79.6789 19.0795C79.0766 18.4545 78.7784 17.6648 78.784 16.7102C78.7784 15.9034 78.9971 15.2045 79.4403 14.6136C79.8891 14.017 80.5113 13.5568 81.3068 13.233C82.1079 12.9034 83.0312 12.7386 84.0766 12.7386C85.6107 12.7386 86.8181 13.0653 87.6988 13.7188C88.5852 14.3722 89.1335 15.2557 89.3437 16.3693ZM95.3742 18.3295V26H92.289V8.54545H95.306V15.1335H95.4594C95.7663 14.3949 96.2407 13.8125 96.8827 13.3864C97.5305 12.9545 98.3543 12.7386 99.3543 12.7386C100.263 12.7386 101.056 12.929 101.732 13.3097C102.408 13.6903 102.931 14.2472 103.3 14.9801C103.675 15.7131 103.863 16.608 103.863 17.6648V26H100.778V18.142C100.778 17.2614 100.55 16.5767 100.096 16.0881C99.6469 15.5937 99.0163 15.3466 98.2038 15.3466C97.6583 15.3466 97.1697 15.4659 96.7378 15.7045C96.3117 15.9375 95.9765 16.2756 95.7322 16.7188C95.4935 17.1619 95.3742 17.6989 95.3742 18.3295ZM107.264 26V8.54545H110.349V15.0739H110.477C110.636 14.7557 110.861 14.4176 111.15 14.0597C111.44 13.696 111.832 13.3864 112.327 13.1307C112.821 12.8693 113.452 12.7386 114.219 12.7386C115.23 12.7386 116.142 12.9972 116.954 13.5142C117.773 14.0256 118.42 14.7841 118.898 15.7898C119.381 16.7898 119.622 18.017 119.622 19.4716C119.622 20.9091 119.386 22.1307 118.915 23.1364C118.443 24.142 117.801 24.9091 116.989 25.4375C116.176 25.9659 115.256 26.2301 114.227 26.2301C113.477 26.2301 112.855 26.1051 112.361 25.8551C111.866 25.6051 111.469 25.304 111.167 24.9517C110.872 24.5937 110.642 24.2557 110.477 23.9375H110.298V26H107.264ZM110.29 19.4545C110.29 20.3011 110.409 21.0426 110.648 21.679C110.892 22.3153 111.241 22.8125 111.696 23.1705C112.156 23.5227 112.713 23.6989 113.366 23.6989C114.048 23.6989 114.619 23.517 115.079 23.1534C115.54 22.7841 115.886 22.2812 116.119 21.6449C116.358 21.0028 116.477 20.2727 116.477 19.4545C116.477 18.642 116.361 17.9205 116.128 17.2898C115.895 16.6591 115.548 16.1648 115.088 15.8068C114.628 15.4489 114.054 15.2699 113.366 15.2699C112.707 15.2699 112.148 15.4432 111.687 15.7898C111.227 16.1364 110.878 16.6222 110.639 17.2472C110.406 17.8722 110.29 18.608 110.29 19.4545ZM128.075 26.2557C126.797 26.2557 125.689 25.9744 124.751 25.4119C123.814 24.8494 123.087 24.0625 122.569 23.0511C122.058 22.0398 121.802 20.858 121.802 19.5057C121.802 18.1534 122.058 16.9687 122.569 15.9517C123.087 14.9347 123.814 14.1449 124.751 13.5824C125.689 13.0199 126.797 12.7386 128.075 12.7386C129.354 12.7386 130.462 13.0199 131.399 13.5824C132.337 14.1449 133.061 14.9347 133.572 15.9517C134.089 16.9687 134.348 18.1534 134.348 19.5057C134.348 20.858 134.089 22.0398 133.572 23.0511C133.061 24.0625 132.337 24.8494 131.399 25.4119C130.462 25.9744 129.354 26.2557 128.075 26.2557ZM128.092 23.7841C128.785 23.7841 129.365 23.5937 129.831 23.2131C130.297 22.8267 130.643 22.3097 130.871 21.6619C131.104 21.0142 131.22 20.2926 131.22 19.4972C131.22 18.696 131.104 17.9716 130.871 17.3239C130.643 16.6705 130.297 16.1506 129.831 15.7642C129.365 15.3778 128.785 15.1847 128.092 15.1847C127.382 15.1847 126.791 15.3778 126.319 15.7642C125.854 16.1506 125.504 16.6705 125.271 17.3239C125.044 17.9716 124.93 18.696 124.93 19.4972C124.93 20.2926 125.044 21.0142 125.271 21.6619C125.504 22.3097 125.854 22.8267 126.319 23.2131C126.791 23.5937 127.382 23.7841 128.092 23.7841ZM140.854 26.2642C140.024 26.2642 139.277 26.1165 138.612 25.821C137.953 25.5199 137.43 25.0767 137.044 24.4915C136.663 23.9062 136.473 23.1847 136.473 22.3267C136.473 21.5881 136.609 20.9773 136.882 20.4943C137.155 20.0114 137.527 19.625 137.998 19.3352C138.47 19.0455 139.001 18.8267 139.592 18.679C140.189 18.5256 140.805 18.4148 141.442 18.3466C142.209 18.267 142.831 18.196 143.308 18.1335C143.785 18.0653 144.132 17.9631 144.348 17.8267C144.569 17.6847 144.68 17.4659 144.68 17.1705V17.1193C144.68 16.4773 144.49 15.9801 144.109 15.6278C143.729 15.2756 143.18 15.0994 142.464 15.0994C141.709 15.0994 141.109 15.2642 140.666 15.5938C140.229 15.9233 139.933 16.3125 139.78 16.7614L136.899 16.3523C137.126 15.5568 137.501 14.892 138.024 14.358C138.547 13.8182 139.186 13.4148 139.942 13.1477C140.697 12.875 141.533 12.7386 142.447 12.7386C143.078 12.7386 143.706 12.8125 144.331 12.9602C144.956 13.108 145.527 13.3523 146.044 13.6932C146.561 14.0284 146.976 14.4858 147.288 15.0653C147.606 15.6449 147.765 16.3693 147.765 17.2386V26H144.8V24.2017H144.697C144.51 24.5653 144.246 24.9062 143.905 25.2244C143.569 25.5369 143.146 25.7898 142.635 25.983C142.129 26.1705 141.535 26.2642 140.854 26.2642ZM141.655 23.9972C142.274 23.9972 142.811 23.875 143.265 23.6307C143.72 23.3807 144.069 23.0511 144.314 22.642C144.564 22.233 144.689 21.7869 144.689 21.304V19.7614C144.592 19.8409 144.427 19.9148 144.194 19.983C143.967 20.0511 143.711 20.1108 143.427 20.1619C143.143 20.2131 142.862 20.2585 142.584 20.2983C142.305 20.3381 142.064 20.3722 141.859 20.4006C141.399 20.4631 140.987 20.5653 140.623 20.7074C140.26 20.8494 139.973 21.0483 139.763 21.304C139.552 21.554 139.447 21.8778 139.447 22.2756C139.447 22.8438 139.655 23.2727 140.069 23.5625C140.484 23.8523 141.013 23.9972 141.655 23.9972ZM150.988 26V12.9091H153.979V15.0909H154.116C154.354 14.3352 154.763 13.7528 155.343 13.3438C155.928 12.929 156.596 12.7216 157.346 12.7216C157.516 12.7216 157.706 12.7301 157.917 12.7472C158.133 12.7585 158.312 12.7784 158.454 12.8068V15.6449C158.323 15.5994 158.116 15.5597 157.831 15.5256C157.553 15.4858 157.283 15.4659 157.022 15.4659C156.459 15.4659 155.954 15.5881 155.505 15.8324C155.062 16.071 154.712 16.4034 154.456 16.8295C154.201 17.2557 154.073 17.7472 154.073 18.304V26H150.988ZM164.942 26.2301C163.914 26.2301 162.993 25.9659 162.181 25.4375C161.368 24.9091 160.726 24.142 160.255 23.1364C159.783 22.1307 159.547 20.9091 159.547 19.4716C159.547 18.017 159.786 16.7898 160.263 15.7898C160.746 14.7841 161.397 14.0256 162.215 13.5142C163.033 12.9972 163.945 12.7386 164.951 12.7386C165.718 12.7386 166.348 12.8693 166.843 13.1307C167.337 13.3864 167.729 13.696 168.019 14.0597C168.309 14.4176 168.533 14.7557 168.692 15.0739H168.82V8.54545H171.914V26H168.88V23.9375H168.692C168.533 24.2557 168.303 24.5937 168.002 24.9517C167.701 25.304 167.303 25.6051 166.809 25.8551C166.314 26.1051 165.692 26.2301 164.942 26.2301ZM165.803 23.6989C166.456 23.6989 167.013 23.5227 167.473 23.1705C167.934 22.8125 168.283 22.3153 168.522 21.679C168.76 21.0426 168.88 20.3011 168.88 19.4545C168.88 18.608 168.76 17.8722 168.522 17.2472C168.289 16.6222 167.942 16.1364 167.482 15.7898C167.027 15.4432 166.468 15.2699 165.803 15.2699C165.116 15.2699 164.542 15.4489 164.081 15.8068C163.621 16.1648 163.275 16.6591 163.042 17.2898C162.809 17.9205 162.692 18.642 162.692 19.4545C162.692 20.2727 162.809 21.0028 163.042 21.6449C163.28 22.2812 163.63 22.7841 164.09 23.1534C164.556 23.517 165.127 23.6989 165.803 23.6989Z" fill="#333843"/>
</svg>
