<svg width="21" height="21" viewBox="0 0 21 21" fill="none" xmlns="http://www.w3.org/2000/svg">
<path d="M3.32023 13.821L0.295226 10.796C0.106193 10.6069 0 10.3505 0 10.0831C0 9.81574 0.106193 9.55932 0.295226 9.37023L3.32023 6.34523C3.5104 6.16155 3.76511 6.05992 4.02949 6.06221C4.29387 6.06451 4.54677 6.17056 4.73373 6.35751C4.92068 6.54446 5.02673 6.79737 5.02902 7.06175C5.03132 7.32613 4.92969 7.58084 4.74601 7.77101L2.4339 10.0831L4.74601 12.3952C4.84232 12.4882 4.91913 12.5995 4.97198 12.7225C5.02482 12.8455 5.05264 12.9779 5.0538 13.1117C5.05497 13.2456 5.02945 13.3784 4.97875 13.5023C4.92805 13.6263 4.85318 13.7388 4.75851 13.8335C4.66383 13.9282 4.55125 14.0031 4.42733 14.0538C4.30341 14.1045 4.17063 14.13 4.03675 14.1288C3.90286 14.1276 3.77055 14.0998 3.64753 14.047C3.52451 13.9941 3.41324 13.9173 3.32023 13.821ZM6.34523 16.846L9.37023 19.871C9.55932 20.06 9.81574 20.1662 10.0831 20.1662C10.3505 20.1662 10.6069 20.06 10.796 19.871L13.821 16.846C14.0047 16.6558 14.1063 16.4011 14.104 16.1367C14.1017 15.8724 13.9957 15.6195 13.8087 15.4325C13.6218 15.2456 13.3689 15.1395 13.1045 15.1372C12.8401 15.1349 12.5854 15.2365 12.3952 15.4202L10.0831 17.7323L7.77101 15.4202C7.58084 15.2365 7.32613 15.1349 7.06175 15.1372C6.79737 15.1395 6.54446 15.2456 6.35751 15.4325C6.17056 15.6195 6.06451 15.8724 6.06221 16.1367C6.05992 16.4011 6.16155 16.6558 6.34523 16.846ZM10.0831 7.05812C9.48483 7.05812 8.89998 7.23553 8.40252 7.56792C7.90506 7.90031 7.51734 8.37275 7.28838 8.9255C7.05943 9.47825 6.99952 10.0865 7.11624 10.6733C7.23296 11.2601 7.52107 11.7991 7.94412 12.2221C8.36717 12.6452 8.90618 12.9333 9.49297 13.05C10.0798 13.1667 10.688 13.1068 11.2407 12.8779C11.7935 12.6489 12.2659 12.2612 12.5983 11.7637C12.9307 11.2663 13.1081 10.6814 13.1081 10.0831C13.1081 9.28084 12.7894 8.51142 12.2221 7.94412C11.6548 7.37682 10.8854 7.05812 10.0831 7.05812ZM13.821 4.74601C14.01 4.55692 14.1162 4.30049 14.1162 4.03312C14.1162 3.76574 14.01 3.50932 13.821 3.32023L10.796 0.295226C10.6069 0.106193 10.3505 0 10.0831 0C9.81574 0 9.55932 0.106193 9.37023 0.295226L6.34523 3.32023C6.16155 3.5104 6.05992 3.76511 6.06221 4.02949C6.06451 4.29387 6.17056 4.54677 6.35751 4.73373C6.54446 4.92068 6.79737 5.02673 7.06175 5.02902C7.32613 5.03132 7.58084 4.92969 7.77101 4.74601L10.0831 2.4339L12.3952 4.74601C12.5843 4.93504 12.8407 5.04124 13.1081 5.04124C13.3755 5.04124 13.6319 4.93504 13.821 4.74601ZM16.846 6.34523C16.6558 6.16155 16.4011 6.05992 16.1367 6.06221C15.8724 6.06451 15.6195 6.17056 15.4325 6.35751C15.2456 6.54446 15.1395 6.79737 15.1372 7.06175C15.1349 7.32613 15.2365 7.58084 15.4202 7.77101L17.7323 10.0831L15.4202 12.3952C15.3239 12.4882 15.2471 12.5995 15.1943 12.7225C15.1414 12.8455 15.1136 12.9779 15.1124 13.1117C15.1113 13.2456 15.1368 13.3784 15.1875 13.5023C15.2382 13.6263 15.3131 13.7388 15.4077 13.8335C15.5024 13.9282 15.615 14.0031 15.7389 14.0538C15.8628 14.1045 15.9956 14.13 16.1295 14.1288C16.2634 14.1276 16.3957 14.0998 16.5187 14.047C16.6417 13.9941 16.753 13.9173 16.846 13.821L19.871 10.796C20.06 10.6069 20.1662 10.3505 20.1662 10.0831C20.1662 9.81574 20.06 9.55932 19.871 9.37023L16.846 6.34523Z" fill="#F56B3F"/>
</svg>
