<svg width="25" height="26" viewBox="0 0 25 26" fill="none" xmlns="http://www.w3.org/2000/svg">
<path d="M14.6656 2.0625C14.831 2.06251 14.9922 2.11501 15.1258 2.21244C15.2595 2.30988 15.3588 2.44722 15.4094 2.60469L16.2688 5.275C16.6297 5.45156 16.975 5.65 17.3047 5.87344L20.0485 5.28281C20.2102 5.24827 20.3788 5.26597 20.5299 5.33337C20.6809 5.40076 20.8067 5.51436 20.8891 5.65781L23.0547 9.40625C23.1374 9.54962 23.1724 9.71555 23.1547 9.88011C23.137 10.0447 23.0675 10.1994 22.9563 10.3219L21.0735 12.4C21.1009 12.7985 21.1009 13.1984 21.0735 13.5969L22.9563 15.6781C23.0675 15.8006 23.137 15.9553 23.1547 16.1199C23.1724 16.2845 23.1374 16.4504 23.0547 16.5938L20.8891 20.3438C20.8065 20.4869 20.6806 20.6002 20.5296 20.6673C20.3785 20.7344 20.2101 20.7519 20.0485 20.7172L17.3047 20.1266C16.9766 20.3484 16.6297 20.5484 16.2703 20.725L15.4094 23.3953C15.3588 23.5528 15.2595 23.6901 15.1258 23.7876C14.9922 23.885 14.831 23.9375 14.6656 23.9375H10.3344C10.169 23.9375 10.0079 23.885 9.8742 23.7876C9.74054 23.6901 9.64125 23.5528 9.59064 23.3953L8.73283 20.7266C8.37286 20.5505 8.02566 20.3495 7.69377 20.125L4.95158 20.7172C4.78981 20.7517 4.62124 20.734 4.47017 20.6666C4.31911 20.5992 4.19333 20.4856 4.11095 20.3422L1.94533 16.5938C1.86263 16.4504 1.82761 16.2845 1.8453 16.1199C1.86299 15.9553 1.93249 15.8006 2.04377 15.6781L3.92658 13.5969C3.89931 13.1994 3.89931 12.8006 3.92658 12.4031L2.04377 10.3219C1.93249 10.1994 1.86299 10.0447 1.8453 9.88011C1.82761 9.71555 1.86263 9.54962 1.94533 9.40625L4.11095 5.65625C4.19355 5.51308 4.31943 5.3998 4.47048 5.3327C4.62153 5.2656 4.78997 5.24813 4.95158 5.28281L7.69377 5.875C8.02502 5.65156 8.37189 5.45 8.73283 5.27344L9.5922 2.60469C9.64265 2.44773 9.74146 2.31075 9.8745 2.21336C10.0075 2.11597 10.168 2.06317 10.3328 2.0625H14.6641H14.6656ZM14.0938 3.625H10.9063L10.0188 6.38594L9.42033 6.67812C9.12614 6.82209 8.84214 6.98601 8.57033 7.16875L8.0172 7.54375L5.1797 6.93125L3.58595 9.69375L5.53127 11.8469L5.48439 12.5094C5.46194 12.8361 5.46194 13.1639 5.48439 13.4906L5.53127 14.1531L3.58283 16.3063L5.17814 19.0688L8.01564 18.4578L8.56877 18.8313C8.84058 19.014 9.12458 19.1779 9.41877 19.3219L10.0172 19.6141L10.9063 22.375H14.0969L14.9875 19.6125L15.5844 19.3219C15.8783 19.1782 16.1618 19.0143 16.4328 18.8313L16.9844 18.4578L19.8235 19.0688L21.4172 16.3063L19.4703 14.1531L19.5172 13.4906C19.5397 13.1634 19.5397 12.835 19.5172 12.5078L19.4703 11.8453L21.4188 9.69375L19.8235 6.93125L16.9844 7.54063L16.4328 7.16875C16.1618 6.98565 15.8783 6.82171 15.5844 6.67812L14.9875 6.3875L14.0953 3.625H14.0938ZM12.5 8.3125C13.7432 8.3125 14.9355 8.80636 15.8146 9.68544C16.6937 10.5645 17.1875 11.7568 17.1875 13C17.1875 14.2432 16.6937 15.4355 15.8146 16.3146C14.9355 17.1936 13.7432 17.6875 12.5 17.6875C11.2568 17.6875 10.0645 17.1936 9.18545 16.3146C8.30638 15.4355 7.81252 14.2432 7.81252 13C7.81252 11.7568 8.30638 10.5645 9.18545 9.68544C10.0645 8.80636 11.2568 8.3125 12.5 8.3125ZM12.5 9.875C11.6712 9.875 10.8764 10.2042 10.2903 10.7903C9.70426 11.3763 9.37502 12.1712 9.37502 13C9.37502 13.8288 9.70426 14.6237 10.2903 15.2097C10.8764 15.7958 11.6712 16.125 12.5 16.125C13.3288 16.125 14.1237 15.7958 14.7097 15.2097C15.2958 14.6237 15.625 13.8288 15.625 13C15.625 12.1712 15.2958 11.3763 14.7097 10.7903C14.1237 10.2042 13.3288 9.875 12.5 9.875Z" fill="white"/>
</svg>
