<svg width="24" height="24" viewBox="0 0 24 24" fill="none" xmlns="http://www.w3.org/2000/svg">
<path d="M15.1323 9.30652C15.8288 9.30652 16.3934 8.74188 16.3934 8.04535C16.3934 7.34883 15.8288 6.78418 15.1323 6.78418C14.4357 6.78418 13.8711 7.34883 13.8711 8.04535C13.8711 8.74188 14.4357 9.30652 15.1323 9.30652Z" fill="white"/>
<path d="M23.426 6.79254H21.9882C21.8724 6.43675 21.7285 6.09008 21.558 5.7557L22.5752 4.73856C22.7991 4.51456 22.7991 4.15157 22.5752 3.92757L20.2294 1.5818C20.0054 1.35796 19.6424 1.35796 19.4184 1.5818L18.4012 2.59901C18.0668 2.4285 17.7202 2.28466 17.3645 2.16879V0.731129C17.3645 0.414442 17.1077 0.157715 16.791 0.157715H13.4736C13.1569 0.157715 12.9002 0.414442 12.9002 0.731129V2.16895C12.5444 2.28483 12.1978 2.42866 11.8634 2.59925L10.8463 1.58204C10.7388 1.47448 10.5929 1.41404 10.4408 1.41404C10.2887 1.41404 10.143 1.4744 10.0353 1.58196L7.68979 3.92757C7.46587 4.15157 7.46587 4.51456 7.68979 4.73848L8.70692 5.7557C8.53649 6.09008 8.39266 6.43667 8.2767 6.79254H6.83904C6.52235 6.79254 6.26562 7.04927 6.26562 7.36596V10.6834C6.26562 11.0001 6.52235 11.2568 6.83904 11.2568H8.27678C8.39266 11.6126 8.53649 11.9591 8.707 12.2935L7.68987 13.3107C7.58231 13.4182 7.52187 13.5641 7.52187 13.7162C7.52187 13.8683 7.58223 14.014 7.68987 14.1217L10.0357 16.4675C10.2596 16.6913 10.6226 16.6913 10.8466 16.4675L11.8638 15.4503C12.1982 15.6208 12.5448 15.7647 12.9006 15.8805V17.3184C12.9006 17.635 13.1573 17.8918 13.474 17.8918H16.7914C17.1081 17.8918 17.3649 17.635 17.3649 17.3184V15.8805C17.7206 15.7647 18.0672 15.6209 18.4016 15.4503L19.4188 16.4675C19.6428 16.6914 20.0058 16.6914 20.2298 16.4675L22.5756 14.1218C22.7995 13.8978 22.7995 13.5348 22.5756 13.3108L21.5584 12.2936C21.7289 11.9592 21.8727 11.6127 21.9886 11.2569H23.4264C23.7431 11.2569 23.9998 11.0001 23.9998 10.6835V7.36596C23.9994 7.04927 23.7427 6.79254 23.426 6.79254ZM15.1325 12.9578C12.9638 12.9578 11.1994 11.1934 11.1994 9.02471C11.1994 6.85598 12.9638 5.09153 15.1325 5.09153C17.3013 5.09153 19.0656 6.85598 19.0656 9.02471C19.0656 11.1934 17.3013 12.9578 15.1325 12.9578Z" fill="white"/>
<path d="M9.05123 17.609H8.51426C8.48945 17.5446 8.46295 17.4806 8.43483 17.4175L8.81463 17.0377C9.03855 16.8137 9.03855 16.4507 8.81463 16.2267L7.61568 15.0278C7.39184 14.8041 7.02877 14.804 6.80477 15.0278L6.42489 15.4076C6.36178 15.3795 6.29786 15.353 6.23337 15.3282V14.7912C6.23337 14.4745 5.97665 14.2178 5.65996 14.2178H3.96453C3.64784 14.2178 3.39111 14.4745 3.39111 14.7912V15.3282C3.32663 15.353 3.26271 15.3795 3.1996 15.4076L2.81972 15.0278C2.59588 14.804 2.23281 14.804 2.00881 15.0278L0.809859 16.2267C0.585939 16.4507 0.585939 16.8137 0.809859 17.0377L1.18966 17.4175C1.16154 17.4806 1.13503 17.5446 1.11022 17.609H0.573414C0.256727 17.609 0 17.8658 0 18.1825V19.8781C0 20.1947 0.256727 20.4515 0.573414 20.4515H1.11038C1.13519 20.516 1.1617 20.5798 1.18982 20.6429L0.81002 21.0228C0.586101 21.2467 0.586101 21.6097 0.81002 21.8337L2.00897 23.0326C2.23297 23.2565 2.59596 23.2565 2.81996 23.0326L3.19976 22.6528C3.26287 22.681 3.32679 22.7075 3.39127 22.7323V23.2692C3.39127 23.5859 3.648 23.8427 3.96469 23.8427H5.6602C5.97689 23.8427 6.23362 23.5859 6.23362 23.2692V22.7323C6.2981 22.7075 6.36202 22.681 6.42513 22.6528L6.80501 23.0326C7.02885 23.2565 7.39192 23.2565 7.61592 23.0326L8.81487 21.8337C9.03879 21.6097 9.03879 21.2467 8.81487 21.0228L8.43507 20.6429C8.46319 20.5798 8.4897 20.516 8.5145 20.4515H9.05147C9.36816 20.4515 9.62489 20.1947 9.62489 19.8781V18.1825C9.62457 17.8657 9.36792 17.609 9.05123 17.609ZM4.81228 20.996C3.72832 20.996 2.84638 20.1141 2.84638 19.0301C2.84638 17.9462 3.72832 17.0642 4.81228 17.0642C5.89624 17.0642 6.77818 17.9462 6.77818 19.0301C6.77818 20.1141 5.89624 20.996 4.81228 20.996Z" fill="white"/>
<path d="M16.5473 10.0066L16.1708 9.89111L15.1336 10.3843L14.0964 9.89111L13.7199 10.0066C13.3199 10.1399 13.0413 10.4973 13.0039 10.9113C13.5293 11.4936 14.2893 11.8604 15.1336 11.8604C15.9778 11.8604 16.7379 11.4936 17.2633 10.9112C17.2259 10.4973 16.9473 10.1399 16.5473 10.0066Z" fill="white"/>
</svg>
