<svg width="24" height="24" viewBox="0 0 24 24" fill="none" xmlns="http://www.w3.org/2000/svg">
<g clip-path="url(#clip0_187_4445)">
<path d="M5.71338 20.6C7.25704 21.7232 9.07386 22.4115 10.9742 22.5931C12.8746 22.7748 14.789 22.4431 16.5174 21.6326C18.2459 20.8222 19.7252 19.5627 20.801 17.9856C21.8768 16.4086 22.5096 14.5717 22.6334 12.6666H12.2867L5.71338 20.6Z" fill="#F56B3F"/>
<path d="M22.6334 11.3333C22.5289 9.59626 22.0009 7.91117 21.0957 6.42499C20.1904 4.93882 18.9352 3.6967 17.4397 2.80697C15.9441 1.91725 14.2536 1.40693 12.5156 1.32053C10.7776 1.23413 9.04476 1.57427 7.46836 2.3113C5.89195 3.04832 4.5198 4.15983 3.47159 5.5489C2.42337 6.93796 1.73092 8.56239 1.45464 10.2805C1.17835 11.9986 1.32661 13.7582 1.88649 15.4059C2.44638 17.0536 3.40088 18.5392 4.66674 19.7333L11.6601 11.3333H22.6334Z" fill="#F56B3F"/>
</g>
<defs>
<clipPath id="clip0_187_4445">
<rect width="24" height="24" fill="white"/>
</clipPath>
</defs>
</svg>
