<svg width="25" height="26" viewBox="0 0 25 26" fill="none" xmlns="http://www.w3.org/2000/svg">
<path d="M12.5002 14.0417C13.0755 14.0417 13.5418 13.5753 13.5418 13C13.5418 12.4247 13.0755 11.9584 12.5002 11.9584C11.9249 11.9584 11.4585 12.4247 11.4585 13C11.4585 13.5753 11.9249 14.0417 12.5002 14.0417Z" stroke="#0A0A1F" stroke-width="1.5"/>
<path d="M18.9859 12.3547C19.12 12.6187 19.187 12.7507 19.187 13C19.187 13.2493 19.12 13.3812 18.9859 13.6453C18.3334 14.9305 16.4708 17.6875 12.5 17.6875C8.52914 17.6875 6.66657 14.9305 6.01403 13.6453C5.88 13.3812 5.81299 13.2493 5.81299 13C5.81299 12.7507 5.88 12.6187 6.01403 12.3547C6.66657 11.0695 8.52914 8.3125 12.5 8.3125C16.4708 8.3125 18.3334 11.0695 18.9859 12.3547Z" stroke="#0A0A1F" stroke-width="1.5"/>
<path d="M17.7083 4.66663H17.9167C19.7826 4.66663 20.7156 4.66663 21.2953 5.24631C21.875 5.82599 21.875 6.75898 21.875 8.62496V8.83329M17.7083 21.3333H17.9167C19.7826 21.3333 20.7156 21.3333 21.2953 20.7536C21.875 20.1739 21.875 19.2409 21.875 17.375V17.1666M7.29167 4.66663H7.08333C5.21735 4.66663 4.28436 4.66663 3.70469 5.24631C3.125 5.82599 3.125 6.75898 3.125 8.62496V8.83329M7.29167 21.3333H7.08333C5.21735 21.3333 4.28436 21.3333 3.70469 20.7536C3.125 20.1739 3.125 19.2409 3.125 17.375V17.1666" stroke="#0A0A1F" stroke-width="1.5" stroke-linecap="round"/>
</svg>
